HIERARCHY
ROOT Hips
{
  OFFSET 54.1193 96.2391 7.31463
  CHANNELS 6 Xposition Yposition Zposition Zrotation Xrotation Yrotation
  JOINT spine
  {
    OFFSET 0 8.13249 0.467659
    CHANNELS 3 Zrotation Xrotation Yrotation
    JOINT spine1
    {
      OFFSET 0 10.3498 0
      CHANNELS 3 Zrotation Xrotation Yrotation
      JOINT spine2
      {
        OFFSET 0 9.91699 0
        CHANNELS 3 Zrotation Xrotation Yrotation
        JOINT Neck
        {
          OFFSET 0 25.461 1.2139
          CHANNELS 3 Zrotation Xrotation Yrotation
          JOINT Head
          {
            OFFSET 0 7.69245 0
            CHANNELS 3 Zrotation Xrotation Yrotation
            End Site
            {
              OFFSET 0 18.62 -6.14063
            }
          }
        }
        JOINT RightShoulder
        {
          OFFSET -4.17575 10.7096 -0.581445
          CHANNELS 3 Zrotation Xrotation Yrotation
          JOINT RightArm
          {
            OFFSET 0 14.0466 0
            CHANNELS 3 Zrotation Xrotation Yrotation
            JOINT RightArmRoll
            {
              OFFSET 0 7.09099 0
              CHANNELS 3 Zrotation Xrotation Yrotation
              JOINT RightForeArm
              {
                OFFSET 0 20.6535 0
                CHANNELS 3 Zrotation Xrotation Yrotation
                JOINT RightForeArmRoll
                {
                  OFFSET 0 7.95718 0
                  CHANNELS 3 Zrotation Xrotation Yrotation
                  JOINT RightHand
                  {
                    OFFSET 0 15.9683 0
                    CHANNELS 3 Zrotation Xrotation Yrotation
                    End Site
                    {
                      OFFSET 0 0 0
                    }
                  }
                }
              }
            }
          }
        }
        JOINT LeftShoulder
        {
          OFFSET 4.17575 10.7096 -0.581445
          CHANNELS 3 Zrotation Xrotation Yrotation
          JOINT LeftArm
          {
            OFFSET 0 14.0466 0
            CHANNELS 3 Zrotation Xrotation Yrotation
            JOINT LeftArmRoll
            {
              OFFSET 0 7.09099 0
              CHANNELS 3 Zrotation Xrotation Yrotation
              JOINT LeftForeArm
              {
                OFFSET 0 20.6535 0
                CHANNELS 3 Zrotation Xrotation Yrotation
                JOINT LeftForeArmRoll
                {
                  OFFSET 0 7.95718 0
                  CHANNELS 3 Zrotation Xrotation Yrotation
                  JOINT LeftHand
                  {
                    OFFSET 0 15.9683 0
                    CHANNELS 3 Zrotation Xrotation Yrotation
                    End Site
                    {
                      OFFSET 0 0 0
                    }
                  }
                }
              }
            }
          }
        }
      }
    }
  }
  JOINT RightUpLeg
  {
    OFFSET -7.20834 -1.32182 -1.10884
    CHANNELS 3 Zrotation Xrotation Yrotation
    JOINT RightUpLegRoll
    {
      OFFSET 0 18.7238 0
      CHANNELS 3 Zrotation Xrotation Yrotation
      JOINT RightLeg
      {
        OFFSET 0 -23.1866 0
        CHANNELS 3 Zrotation Xrotation Yrotation
        JOINT RightLegRoll
        {
          OFFSET 0 23.2624 0
          CHANNELS 3 Zrotation Xrotation Yrotation
          JOINT RightFoot
          {
            OFFSET 0 19.3621 0
            CHANNELS 3 Zrotation Xrotation Yrotation
            JOINT RightToeBase
            {
              OFFSET 0 16.1857 0
              CHANNELS 3 Zrotation Xrotation Yrotation
              End Site
              {
                OFFSET 0.00686052 7.83863 -0.903522
              }
            }
          }
        }
      }
    }
  }
  JOINT LeftUpLeg
  {
    OFFSET 7.20834 -1.32182 -1.10884
    CHANNELS 3 Zrotation Xrotation Yrotation
    JOINT LeftUpLegRoll
    {
      OFFSET 0 18.7239 0
      CHANNELS 3 Zrotation Xrotation Yrotation
      JOINT LeftLeg
      {
        OFFSET 0 23.1865 0
        CHANNELS 3 Zrotation Xrotation Yrotation
        JOINT LeftLegRoll
        {
          OFFSET 0 23.4775 0
          CHANNELS 3 Zrotation Xrotation Yrotation
          JOINT LeftFoot
          {
            OFFSET 0 19.147 0
            CHANNELS 3 Zrotation Xrotation Yrotation
            JOINT LeftToeBase
            {
              OFFSET 0 16.1857 0
              CHANNELS 3 Zrotation Xrotation Yrotation
              End Site
              {
                OFFSET -0.0307459 7.83862 -0.903522
              }
            }
          }
        }
      }
    }
  }
}
MOTION
Frames: 4
Frame Time: 0.00208333
53.3814 96.2062 6.82468 -1.0154 -3.47764 -0.138813 0.508425 -1.47984 0.0672657 1.01748 1.04332 0.0812877 1.01716 2.68824 0.0642838 -3.22993 13.2469 -2.50883 3.73621 -2.14209 -2.94406 59.2063 -10.0647 -6.26244 110.871 18.4139 21.6784 2.35158e-007 -3.33508e-008 -3.09822e-006 5.36212 0.0371665 -0.668853 -5.61163e-006 -6.55699e-007 -3.03558 8.0295 -4.95145 0.697666 -61.9707 -7.80355 4.93814 -109.041 16.3033 -9.00329 -1.34795e-006 -3.71626e-006 7.75911e-006 -8.80127 0.0676064 1.0326 -2.31234e-007 2.22999e-006 3.03575 -8.02908 -4.95148 -0.697681 173.791 1.04396 3.54292 180 7.01559e-015 178.976 178.032 8.7216 179.748 -1.49267e-006 -2.57806e-006 -0.0202779 -16.4005 67.391 19.0598 8.13649 25.2327 -3.48774 -172.335 0.881665 -2.10477 4.5067e-006 -1.99009e-005 -0.941204 -1.01045 -12.1488 0.490198 -3.98723e-007 3.14543e-006 -0.124577 18.7777 70.7532 -21.956 -8.13664 25.2349 3.48472 
53.3796 96.2015 6.82663 -1.01483 -3.4755 -0.136903 0.508154 -1.47976 0.0675017 1.01694 1.04348 0.0814337 1.01661 2.6884 0.0644371 -3.2341 13.2294 -2.51075 3.73854 -2.12254 -2.94708 59.1959 -10.0755 -6.26913 110.891 18.4308 21.7669 2.35158e-007 -3.33508e-008 -3.09822e-006 5.28476 0.0371494 -0.66839 -5.61163e-006 -6.55699e-007 -3.03585 8.0295 -4.95145 0.697666 -61.964 -7.8118 4.94279 -109.05 16.3078 -9.04431 -1.34795e-006 -3.71626e-006 7.75911e-006 -8.7774 0.0675511 1.03699 -2.31234e-007 2.22999e-006 3.03574 -8.02908 -4.95148 -0.697681 173.788 1.05165 3.54713 180 7.01559e-015 178.976 178.027 8.73693 179.748 -1.49267e-006 -2.57806e-006 -0.0202779 -16.4078 67.3946 19.0625 8.13649 25.2327 -3.48774 -172.336 0.889454 -2.10462 4.5067e-006 -1.99009e-005 -0.941204 -1.0106 -12.1614 0.490704 -3.98723e-007 3.14543e-006 -0.125491 18.7835 70.7599 -21.9627 -8.13664 25.2349 3.48472 
53.3885 96.1844 6.82889 -1.01418 -3.47349 -0.13497 0.507902 -1.47963 0.0677755 1.01644 1.04374 0.0816289 1.01611 2.68866 0.064639 -3.23898 13.2116 -2.51263 3.74161 -2.10272 -2.95017 59.1846 -10.0866 -6.27606 110.911 18.4472 21.8538 2.35158e-007 -3.33508e-008 -3.09822e-006 5.2086 0.0371651 -0.668088 -5.61163e-006 -6.55699e-007 -3.03609 8.0295 -4.95145 0.697666 -61.9574 -7.82022 4.94754 -109.06 16.3126 -9.08318 -1.34795e-006 -3.71626e-006 7.75911e-006 -8.75463 0.0675089 1.04131 -2.31234e-007 2.22999e-006 3.03573 -8.02908 -4.95148 -0.697681 173.786 1.05943 3.55159 180 7.01559e-015 178.976 178.023 8.75279 179.749 -1.49267e-006 -2.57806e-006 -0.0202779 -16.4154 67.3983 19.0653 8.13649 25.2327 -3.48774 -172.336 0.897202 -2.10445 4.5067e-006 -1.99009e-005 -0.941204 -1.01079 -12.1741 0.491229 -3.98723e-007 3.14543e-006 -0.126438 18.7892 70.7666 -21.9694 -8.13664 25.2349 3.48472 
53.3914 96.1912 6.83031 -1.01348 -3.47155 -0.133021 0.507664 -1.47947 0.0680757 1.01597 1.04406 0.0818585 1.01563 2.68898 0.0648749 -3.24434 13.1936 -2.5145 3.74519 -2.08271 -2.9533 59.1726 -10.098 -6.28316 110.932 18.4633 21.9397 2.35158e-007 -3.33508e-008 -3.09822e-006 5.13327 0.0372038 -0.667898 -5.61163e-006 -6.55699e-007 -3.03632 8.0295 -4.95145 0.697666 -61.9509 -7.82875 4.95236 -109.07 16.3176 -9.12056 -1.34795e-006 -3.71626e-006 7.75911e-006 -8.73263 0.0674759 1.04556 -2.31234e-007 2.22999e-006 3.03572 -8.02908 -4.95148 -0.697681 173.783 1.06728 3.55624 180 7.01559e-015 178.976 178.018 8.76901 179.749 -1.49267e-006 -2.57806e-006 -0.0202779 -16.4232 67.402 19.0682 8.13649 25.2327 -3.48774 -172.336 0.904921 -2.10425 4.5067e-006 -1.99009e-005 -0.941204 -1.011 -12.1869 0.491766 -3.98723e-007 3.14543e-006 -0.127408 18.7949 70.7734 -21.9762 -8.13664 25.2349 3.48472 
